<?xml version="1.0" encoding="UTF-8" standalone="no"?>
<!-- Created with Inkscape (http://www.inkscape.org/) -->
<svg
   xmlns:dc="http://purl.org/dc/elements/1.1/"
   xmlns:cc="http://creativecommons.org/ns#"
   xmlns:rdf="http://www.w3.org/1999/02/22-rdf-syntax-ns#"
   xmlns:svg="http://www.w3.org/2000/svg"
   xmlns="http://www.w3.org/2000/svg"
   xmlns:xlink="http://www.w3.org/1999/xlink"
   xmlns:sodipodi="http://sodipodi.sourceforge.net/DTD/sodipodi-0.dtd"
   xmlns:inkscape="http://www.inkscape.org/namespaces/inkscape"
   width="250.00002"
   height="36.182999"
   id="svg3715"
   sodipodi:version="0.32"
   inkscape:version="0.46"
   version="1.0"
   sodipodi:docname="watermark_source.svg"
   inkscape:output_extension="org.inkscape.output.svg.inkscape"
   inkscape:export-filename="C:\Users\aw\Desktop\HTML Guard Articles\watermark-php\watermark_source.png"
   inkscape:export-xdpi="89.999992"
   inkscape:export-ydpi="89.999992">
  <defs
     id="defs3717">
    <inkscape:perspective
       sodipodi:type="inkscape:persp3d"
       inkscape:vp_x="0 : 526.18109 : 1"
       inkscape:vp_y="0 : 1000 : 0"
       inkscape:vp_z="744.09448 : 526.18109 : 1"
       inkscape:persp3d-origin="372.04724 : 350.78739 : 1"
       id="perspective3723" />
  </defs>
  <sodipodi:namedview
     id="base"
     pagecolor="#ffffff"
     bordercolor="#666666"
     borderopacity="1.0"
     inkscape:pageopacity="0.0"
     inkscape:pageshadow="2"
     inkscape:zoom="5.2159997"
     inkscape:cx="125.00001"
     inkscape:cy="18.091499"
     inkscape:document-units="px"
     inkscape:current-layer="layer1"
     showgrid="false"
     inkscape:window-width="1400"
     inkscape:window-height="1000"
     inkscape:window-x="-8"
     inkscape:window-y="-8" />
  <metadata
     id="metadata3720">
    <rdf:RDF>
      <cc:Work
         rdf:about="">
        <dc:format>image/svg+xml</dc:format>
        <dc:type
           rdf:resource="http://purl.org/dc/dcmitype/StillImage" />
      </cc:Work>
    </rdf:RDF>
  </metadata>
  <g
     inkscape:label="Ebene 1"
     inkscape:groupmode="layer"
     id="layer1"
     transform="translate(-55.000003,-537.09845)">
    <g
       id="g2459"
       transform="matrix(1.0016254,0,0,1.0016254,-8.9398342e-2,-0.9318257)">
      <g
         style="opacity:1;fill:#333333;stroke:#333333;stroke-width:11;stroke-linejoin:round;stroke-miterlimit:4;stroke-dasharray:none"
         transform="matrix(0.3032389,0,0,0.3032389,37.562654,459.83754)"
         id="g3693">
        <path
           d="M 77.590802,304.82967 C 82.082052,304.97342 86.224552,306.38967 90.077052,309.01467 C 93.873302,311.59592 96.353302,314.64467 97.597052,318.22842 C 98.842052,321.83342 98.497052,324.99592 96.518302,327.77342 C 94.495802,330.62842 91.320802,332.24467 86.910802,332.59842 C 82.344552,332.96342 77.850802,331.87717 73.452052,329.23592 C 68.948302,326.53217 66.005802,323.10467 64.673302,318.99717 C 63.350802,314.90467 64.052052,311.44842 66.717052,308.65467 C 69.303302,305.95092 72.948302,304.68842 77.590802,304.82967"
           style="fill:#333333;fill-opacity:1;fill-rule:nonzero;stroke:#333333;stroke-width:11;stroke-linejoin:round;stroke-miterlimit:4;stroke-dasharray:none"
           id="path3695" />
        <path
           d="M 145.80205,282.67842 C 148.0658,283.04717 150.2983,284.22967 152.5133,286.21342 C 154.7058,288.16717 156.2633,290.35467 157.2308,292.80967 C 158.20205,295.26842 158.30205,297.30842 157.5108,298.95967 C 156.7183,300.64342 155.23455,301.41217 153.02705,301.27217 C 150.76955,301.12967 148.43955,300.06842 146.03955,298.05717 C 143.59705,296.01092 141.85205,293.63592 140.82205,290.94717 C 139.80205,288.26967 139.80205,286.11592 140.82205,284.49342 C 141.81455,282.90717 143.4858,282.30967 145.80205,282.67842"
           style="fill:#333333;fill-opacity:1;fill-rule:nonzero;stroke:#333333;stroke-width:11;stroke-linejoin:round;stroke-miterlimit:4;stroke-dasharray:none"
           id="path3697" />
        <path
           d="M 123.6708,267.16217 C 126.40705,267.76092 129.04455,269.19967 131.5958,271.45842 C 134.1283,273.68217 135.8733,276.08217 136.8783,278.70842 C 137.88955,281.33592 137.87205,283.45467 136.8033,285.09342 C 135.7258,286.76592 133.8708,287.43467 131.1858,287.09467 C 128.4383,286.74342 125.6658,285.44092 122.86205,283.13092 C 120.0133,280.77967 118.0383,278.14217 116.96955,275.25467 C 115.90205,272.37342 116.0633,270.13967 117.4383,268.55217 C 118.77455,267.00967 120.8608,266.55342 123.6708,267.16217"
           style="fill:#333333;fill-opacity:1;fill-rule:nonzero;stroke:#333333;stroke-width:11;stroke-linejoin:round;stroke-miterlimit:4;stroke-dasharray:none"
           id="path3699" />
        <path
           d="M 96.260802,260.85967 C 99.757052,261.62717 103.0308,263.32592 106.13955,265.91092 C 109.1983,268.45967 111.24455,271.17467 112.3233,274.11717 C 113.39955,277.06092 113.21705,279.41967 111.72205,281.21467 C 110.20705,283.05467 107.76455,283.76217 104.33455,283.32092 C 100.80705,282.86467 97.307052,281.33592 93.857052,278.66842 C 90.328302,275.94717 87.977052,272.93217 86.825802,269.65342 C 85.685802,266.39217 86.099552,263.88967 88.025802,262.17467 C 89.910802,260.50342 92.672052,260.07342 96.260802,260.85967"
           style="fill:#333333;fill-opacity:1;fill-rule:nonzero;stroke:#333333;stroke-width:11;stroke-linejoin:round;stroke-miterlimit:4;stroke-dasharray:none"
           id="path3701" />
        <path
           d="M 75.903302,274.65467 C 80.178302,275.29092 84.124552,277.01842 87.797052,279.79842 C 91.422052,282.52842 93.780802,285.52842 94.950802,288.86217 C 96.130802,292.21217 95.785802,294.97342 93.868302,297.20717 C 91.917052,299.49967 88.877052,300.55342 84.675802,300.34217 C 80.328302,300.12217 76.053302,298.62592 71.898302,295.77967 C 67.640802,292.86467 64.859552,289.49967 63.612052,285.71842 C 62.367052,281.95592 63.039552,278.98217 65.568302,276.81217 C 68.019552,274.71092 71.485802,274.00217 75.903302,274.65467"
           style="fill:#333333;fill-opacity:1;fill-rule:nonzero;stroke:#333333;stroke-width:11;stroke-linejoin:round;stroke-miterlimit:4;stroke-dasharray:none"
           id="path3703" />
        <path
           d="M 110.17455,361.24592 C 106.17705,362.11717 102.17955,361.45967 98.219552,359.25342 C 94.162052,356.98717 91.422052,353.81592 90.069552,349.76842 C 88.727052,345.74217 89.180802,342.13842 91.393302,338.98217 C 93.510802,335.91842 96.654552,334.25342 100.7458,333.88217 C 104.6858,333.52467 108.3858,334.48717 111.9108,336.75842 C 115.36705,338.99217 117.68455,341.83842 118.93455,345.37592 C 120.2008,348.93842 120.0383,352.20467 118.41205,355.25967 C 116.75205,358.39217 114.02705,360.41092 110.17455,361.24592"
           style="fill:#333333;fill-opacity:1;fill-rule:nonzero;stroke:#333333;stroke-width:11;stroke-linejoin:round;stroke-miterlimit:4;stroke-dasharray:none"
           id="path3705" />
        <path
           d="M 142.05955,368.18592 C 139.0308,369.06342 135.92705,368.57217 132.76705,366.69967 C 129.53205,364.78342 127.25705,362.01842 125.9858,358.43842 C 124.7158,354.87592 124.84205,351.62842 126.32455,348.71592 C 127.7558,345.89217 130.0558,344.27342 133.1733,343.78967 C 136.1908,343.32092 139.11205,344.06592 141.9758,346.00092 C 144.7933,347.90717 146.7683,350.42467 147.94455,353.59967 C 149.13205,356.78717 149.1908,359.76592 148.09955,362.57592 C 146.98455,365.44717 144.98705,367.33467 142.05955,368.18592"
           style="fill:#333333;fill-opacity:1;fill-rule:nonzero;stroke:#333333;stroke-width:11;stroke-linejoin:round;stroke-miterlimit:4;stroke-dasharray:none"
           id="path3707" />
        <path
           d="M 162.9283,358.43842 C 160.5458,359.07092 158.06205,358.53092 155.47455,356.79467 C 152.8333,355.02967 150.91705,352.57467 149.75205,349.45342 C 148.58955,346.34967 148.53955,343.55217 149.57455,341.08967 C 150.57705,338.67967 152.3208,337.34592 154.77455,337.00717 C 157.1558,336.68717 159.5258,337.41217 161.9058,339.18717 C 164.24955,340.93842 165.9458,343.19342 167.02955,346.00092 C 168.1233,348.81842 168.29455,351.40967 167.53455,353.80967 C 166.7508,356.25967 165.2308,357.81717 162.9283,358.43842"
           style="fill:#333333;fill-opacity:1;fill-rule:nonzero;stroke:#333333;stroke-width:11;stroke-linejoin:round;stroke-miterlimit:4;stroke-dasharray:none"
           id="path3709" />
      </g>
      <g
         style="opacity:1;fill:#ffffff"
         transform="matrix(0.3032389,0,0,0.3032389,37.562654,459.83754)"
         id="g3683">
        <path
           d="M 77.590802,304.82967 C 82.082052,304.97342 86.224552,306.38967 90.077052,309.01467 C 93.873302,311.59592 96.353302,314.64467 97.597052,318.22842 C 98.842052,321.83342 98.497052,324.99592 96.518302,327.77342 C 94.495802,330.62842 91.320802,332.24467 86.910802,332.59842 C 82.344552,332.96342 77.850802,331.87717 73.452052,329.23592 C 68.948302,326.53217 66.005802,323.10467 64.673302,318.99717 C 63.350802,314.90467 64.052052,311.44842 66.717052,308.65467 C 69.303302,305.95092 72.948302,304.68842 77.590802,304.82967"
           style="fill:#ffffff;fill-opacity:1;fill-rule:nonzero;stroke:none"
           id="path3490" />
        <path
           d="M 145.80205,282.67842 C 148.0658,283.04717 150.2983,284.22967 152.5133,286.21342 C 154.7058,288.16717 156.2633,290.35467 157.2308,292.80967 C 158.20205,295.26842 158.30205,297.30842 157.5108,298.95967 C 156.7183,300.64342 155.23455,301.41217 153.02705,301.27217 C 150.76955,301.12967 148.43955,300.06842 146.03955,298.05717 C 143.59705,296.01092 141.85205,293.63592 140.82205,290.94717 C 139.80205,288.26967 139.80205,286.11592 140.82205,284.49342 C 141.81455,282.90717 143.4858,282.30967 145.80205,282.67842"
           style="fill:#ffffff;fill-opacity:1;fill-rule:nonzero;stroke:none"
           id="path3492" />
        <path
           d="M 123.6708,267.16217 C 126.40705,267.76092 129.04455,269.19967 131.5958,271.45842 C 134.1283,273.68217 135.8733,276.08217 136.8783,278.70842 C 137.88955,281.33592 137.87205,283.45467 136.8033,285.09342 C 135.7258,286.76592 133.8708,287.43467 131.1858,287.09467 C 128.4383,286.74342 125.6658,285.44092 122.86205,283.13092 C 120.0133,280.77967 118.0383,278.14217 116.96955,275.25467 C 115.90205,272.37342 116.0633,270.13967 117.4383,268.55217 C 118.77455,267.00967 120.8608,266.55342 123.6708,267.16217"
           style="fill:#ffffff;fill-opacity:1;fill-rule:nonzero;stroke:none"
           id="path3494" />
        <path
           d="M 96.260802,260.85967 C 99.757052,261.62717 103.0308,263.32592 106.13955,265.91092 C 109.1983,268.45967 111.24455,271.17467 112.3233,274.11717 C 113.39955,277.06092 113.21705,279.41967 111.72205,281.21467 C 110.20705,283.05467 107.76455,283.76217 104.33455,283.32092 C 100.80705,282.86467 97.307052,281.33592 93.857052,278.66842 C 90.328302,275.94717 87.977052,272.93217 86.825802,269.65342 C 85.685802,266.39217 86.099552,263.88967 88.025802,262.17467 C 89.910802,260.50342 92.672052,260.07342 96.260802,260.85967"
           style="fill:#ffffff;fill-opacity:1;fill-rule:nonzero;stroke:none"
           id="path3496" />
        <path
           d="M 75.903302,274.65467 C 80.178302,275.29092 84.124552,277.01842 87.797052,279.79842 C 91.422052,282.52842 93.780802,285.52842 94.950802,288.86217 C 96.130802,292.21217 95.785802,294.97342 93.868302,297.20717 C 91.917052,299.49967 88.877052,300.55342 84.675802,300.34217 C 80.328302,300.12217 76.053302,298.62592 71.898302,295.77967 C 67.640802,292.86467 64.859552,289.49967 63.612052,285.71842 C 62.367052,281.95592 63.039552,278.98217 65.568302,276.81217 C 68.019552,274.71092 71.485802,274.00217 75.903302,274.65467"
           style="fill:#ffffff;fill-opacity:1;fill-rule:nonzero;stroke:none"
           id="path3498" />
        <path
           d="M 110.17455,361.24592 C 106.17705,362.11717 102.17955,361.45967 98.219552,359.25342 C 94.162052,356.98717 91.422052,353.81592 90.069552,349.76842 C 88.727052,345.74217 89.180802,342.13842 91.393302,338.98217 C 93.510802,335.91842 96.654552,334.25342 100.7458,333.88217 C 104.6858,333.52467 108.3858,334.48717 111.9108,336.75842 C 115.36705,338.99217 117.68455,341.83842 118.93455,345.37592 C 120.2008,348.93842 120.0383,352.20467 118.41205,355.25967 C 116.75205,358.39217 114.02705,360.41092 110.17455,361.24592"
           style="fill:#ffffff;fill-opacity:1;fill-rule:nonzero;stroke:none"
           id="path3500" />
        <path
           d="M 142.05955,368.18592 C 139.0308,369.06342 135.92705,368.57217 132.76705,366.69967 C 129.53205,364.78342 127.25705,362.01842 125.9858,358.43842 C 124.7158,354.87592 124.84205,351.62842 126.32455,348.71592 C 127.7558,345.89217 130.0558,344.27342 133.1733,343.78967 C 136.1908,343.32092 139.11205,344.06592 141.9758,346.00092 C 144.7933,347.90717 146.7683,350.42467 147.94455,353.59967 C 149.13205,356.78717 149.1908,359.76592 148.09955,362.57592 C 146.98455,365.44717 144.98705,367.33467 142.05955,368.18592"
           style="fill:#ffffff;fill-opacity:1;fill-rule:nonzero;stroke:none"
           id="path3502" />
        <path
           d="M 162.9283,358.43842 C 160.5458,359.07092 158.06205,358.53092 155.47455,356.79467 C 152.8333,355.02967 150.91705,352.57467 149.75205,349.45342 C 148.58955,346.34967 148.53955,343.55217 149.57455,341.08967 C 150.57705,338.67967 152.3208,337.34592 154.77455,337.00717 C 157.1558,336.68717 159.5258,337.41217 161.9058,339.18717 C 164.24955,340.93842 165.9458,343.19342 167.02955,346.00092 C 168.1233,348.81842 168.29455,351.40967 167.53455,353.80967 C 166.7508,356.25967 165.2308,357.81717 162.9283,358.43842"
           style="fill:#ffffff;fill-opacity:1;fill-rule:nonzero;stroke:none"
           id="path3504" />
      </g>
    </g>
    <path
       sodipodi:type="inkscape:offset"
       inkscape:radius="1.6167501"
       inkscape:original="M 91.5 541.125 L 94.8125 556.03125 L 99.34375 556.03125 L 101.9375 546.625 L 104.53125 556.03125 L 109.0625 556.03125 L 112.34375 541.125 L 108 541.125 L 106.40625 549.4375 L 104.09375 541.125 L 99.75 541.125 L 97.4375 549.4375 L 95.875 541.125 L 91.5 541.125 z M 127.5 541.125 L 127.5 556.03125 L 131.375 556.03125 L 131.375 554.4375 C 131.91052 555.10861 132.42082 555.56845 132.875 555.8125 C 133.47831 556.12433 134.14965 556.28127 134.875 556.28125 C 135.72235 556.28125 136.49265 556.03778 137.1875 555.59375 C 137.88232 555.14974 138.41931 554.49195 138.8125 553.59375 C 139.20566 552.69555 139.40623 551.64826 139.40625 550.46875 C 139.40624 548.69947 138.98591 547.35188 138.125 546.40625 C 137.26407 545.46061 136.15884 544.96877 134.84375 544.96875 C 134.20653 544.96876 133.61911 545.0956 133.09375 545.3125 C 132.56838 545.52943 132.10101 545.84739 131.6875 546.28125 L 131.6875 541.125 L 127.5 541.125 z M 154.28125 541.125 L 154.28125 543.9375 L 158.4375 543.9375 L 158.4375 541.125 L 154.28125 541.125 z M 166.09375 541.125 L 161.9375 543.25 L 161.9375 545.21875 L 160.40625 545.21875 L 160.40625 548.25 L 161.9375 548.25 L 161.9375 552.0625 C 161.9375 553.26914 162.04737 554.11735 162.28125 554.65625 C 162.51512 555.19517 162.88692 555.61063 163.375 555.875 C 163.86307 556.13938 164.62585 556.28127 165.65625 556.28125 C 166.54428 556.28125 167.47638 556.16118 168.5 555.9375 L 168.21875 553.0625 C 167.66965 553.23875 167.24254 553.34377 166.9375 553.34375 C 166.59855 553.34375 166.35433 553.23048 166.21875 553 C 166.13062 552.85087 166.09375 552.55473 166.09375 552.09375 L 166.09375 548.25 L 168.375 548.25 L 168.375 545.21875 L 166.09375 545.21875 L 166.09375 541.125 z M 184.53125 541.125 L 184.53125 556.03125 L 188.875 556.03125 L 188.875 547.84375 L 194.4375 556.03125 L 198.78125 556.03125 L 198.78125 541.125 L 194.4375 541.125 L 194.4375 549.375 L 188.84375 541.125 L 184.53125 541.125 z M 119.15625 544.96875 C 117.25138 544.96876 115.76873 545.51858 114.6875 546.5625 C 113.60627 547.60645 113.0625 548.96832 113.0625 550.65625 C 113.0625 551.84256 113.33608 552.87213 113.875 553.75 C 114.41392 554.62786 115.08601 555.2529 115.90625 555.65625 C 116.72649 556.05959 117.8509 556.28127 119.28125 556.28125 C 120.92851 556.28125 122.21249 556.03362 123.09375 555.5625 C 123.97499 555.09137 124.72008 554.30335 125.34375 553.21875 L 121.25 552.84375 C 120.99239 553.16914 120.75494 553.40243 120.53125 553.53125 C 120.16518 553.73462 119.78173 553.84372 119.375 553.84375 C 118.731 553.84375 118.21245 553.59276 117.8125 553.125 C 117.52778 552.79962 117.35581 552.32059 117.28125 551.65625 L 125.5625 551.65625 L 125.5625 551.1875 C 125.56249 549.76394 125.34273 548.60678 124.875 547.71875 C 124.40725 546.83073 123.7073 546.15528 122.8125 545.6875 C 121.91768 545.21977 120.70182 544.96877 119.15625 544.96875 z M 146.375 544.96875 C 145.1548 544.96876 144.19409 545.12078 143.46875 545.375 C 142.74341 545.62922 142.1635 546.01609 141.75 546.53125 C 141.33649 547.04645 141.125 547.63195 141.125 548.34375 C 141.125 548.99453 141.33574 549.58532 141.71875 550.09375 C 142.10175 550.60217 142.56574 550.97399 143.125 551.1875 C 143.68425 551.40104 144.68787 551.6242 146.125 551.875 C 147.08759 552.04448 147.68254 552.19728 147.90625 552.3125 C 148.21807 552.4752 148.37499 552.70173 148.375 553 C 148.37499 553.26438 148.23726 553.47999 148 553.65625 C 147.69494 553.89351 147.27461 553.99998 146.71875 554 C 146.21033 554 145.80505 553.89766 145.5 553.6875 C 145.19495 553.47736 144.95071 553.14431 144.78125 552.65625 L 140.6875 553.03125 C 140.92476 554.06842 141.44406 554.87488 142.28125 555.4375 C 143.11844 556.00015 144.52734 556.28125 146.5 556.28125 C 147.89644 556.28125 149.00241 556.09912 149.8125 555.75 C 150.62256 555.40089 151.21751 554.93354 151.59375 554.34375 C 151.96997 553.75399 152.15623 553.15494 152.15625 552.53125 C 152.15624 551.91438 151.98088 551.35893 151.625 550.84375 C 151.2691 550.32856 150.76485 549.90293 150.09375 549.625 C 149.42263 549.34707 148.37611 549.15589 147 549 C 146.09163 548.89155 145.52116 548.76059 145.25 548.625 C 144.97884 548.48943 144.84374 548.29562 144.84375 548.03125 C 144.84375 547.794 144.94271 547.57236 145.15625 547.40625 C 145.36978 547.24018 145.71976 547.15624 146.1875 547.15625 C 146.64846 547.15626 147.01835 547.28307 147.34375 547.5 C 147.581 547.6627 147.77331 547.90426 147.875 548.25 L 151.78125 547.875 C 151.51008 547.17001 151.16011 546.60104 150.75 546.1875 C 150.33987 545.774 149.83223 545.47788 149.21875 545.28125 C 148.60525 545.08467 147.66298 544.96877 146.375 544.96875 z M 175.90625 544.96875 C 174.00138 544.96876 172.51873 545.51858 171.4375 546.5625 C 170.35627 547.60645 169.8125 548.96832 169.8125 550.65625 C 169.8125 551.84256 170.08608 552.87213 170.625 553.75 C 171.16392 554.62786 171.83601 555.2529 172.65625 555.65625 C 173.47649 556.05959 174.6009 556.28127 176.03125 556.28125 C 177.67851 556.28125 178.93124 556.03362 179.8125 555.5625 C 180.69374 555.09137 181.43883 554.30335 182.0625 553.21875 L 178 552.84375 C 177.74239 553.16914 177.50494 553.40243 177.28125 553.53125 C 176.91518 553.73462 176.53173 553.84372 176.125 553.84375 C 175.481 553.84375 174.96245 553.59276 174.5625 553.125 C 174.27778 552.79962 174.07457 552.32059 174 551.65625 L 182.3125 551.65625 L 182.3125 551.1875 C 182.31249 549.76394 182.09272 548.60678 181.625 547.71875 C 181.15725 546.83073 180.4573 546.15528 179.5625 545.6875 C 178.66768 545.21977 177.45182 544.96877 175.90625 544.96875 z M 207 544.96875 C 206.2272 544.96876 205.50807 545.04104 204.84375 545.15625 C 204.17942 545.2715 203.66086 545.44612 203.28125 545.65625 C 202.7525 545.94775 202.34382 546.29092 202.0625 546.6875 C 201.78118 547.08407 201.55539 547.62104 201.40625 548.3125 L 205.375 548.71875 C 205.53769 548.25102 205.73561 547.95072 206 547.78125 C 206.33894 547.56433 206.85336 547.43749 207.53125 547.4375 C 208.05999 547.43751 208.44609 547.54662 208.65625 547.75 C 208.86639 547.95337 208.96874 548.30412 208.96875 548.8125 C 208.45355 549.01587 207.96095 549.18712 207.5 549.3125 C 207.03903 549.43792 206.0211 549.65692 204.46875 549.96875 C 203.17398 550.22635 202.29379 550.62752 201.8125 551.15625 C 201.3312 551.68501 201.09375 552.33602 201.09375 553.15625 C 201.09375 554.03073 201.42604 554.77845 202.09375 555.375 C 202.76147 555.97154 203.74326 556.28127 205.03125 556.28125 C 206.00062 556.28125 206.86162 556.11077 207.59375 555.8125 C 208.12927 555.5888 208.64518 555.20949 209.1875 554.6875 C 209.23494 554.99933 209.29629 555.22923 209.34375 555.375 C 209.39119 555.52075 209.50032 555.75332 209.65625 556.03125 L 213.53125 556.03125 C 213.31431 555.58385 213.15813 555.19436 213.09375 554.90625 C 213.02934 554.61815 212.99998 554.22717 213 553.71875 L 213 548.96875 C 212.99999 548.46034 212.92211 547.90299 212.71875 547.34375 C 212.51537 546.7845 212.22749 546.36759 211.875 546.0625 C 211.37335 545.62188 210.75244 545.3265 210 545.1875 C 209.24754 545.04854 208.24053 544.96877 207 544.96875 z M 223.125 544.96875 C 222.32509 544.96876 221.65978 545.12831 221.09375 545.40625 C 220.52771 545.68419 219.96211 546.15497 219.40625 546.8125 L 219.40625 545.21875 L 215.53125 545.21875 L 215.53125 556.03125 L 219.6875 556.03125 L 219.6875 550.5 C 219.68749 549.67976 219.8512 549.1093 220.15625 548.75 C 220.46129 548.39073 220.83797 548.21873 221.3125 548.21875 C 221.60398 548.21876 221.87682 548.30269 222.09375 548.46875 C 222.31067 548.63484 222.44311 548.85384 222.53125 549.125 C 222.58547 549.29448 222.62499 549.58802 222.625 550.0625 L 222.625 556.03125 L 226.78125 556.03125 L 226.78125 550.4375 C 226.78124 549.65794 226.92047 549.1025 227.21875 548.75 C 227.51701 548.39751 227.91816 548.21874 228.40625 548.21875 C 228.81975 548.21876 229.15955 548.4084 229.4375 548.78125 C 229.62729 549.01852 229.71874 549.3869 229.71875 549.875 L 229.71875 556.03125 L 233.875 556.03125 L 233.875 549.25 C 233.87498 547.78577 233.52575 546.68805 232.875 546 C 232.22421 545.31196 231.34666 544.96877 230.1875 544.96875 C 229.40114 544.96876 228.72301 545.12078 228.1875 545.375 C 227.65196 545.62922 227.05701 546.10751 226.40625 546.8125 C 226.08763 546.20919 225.68913 545.74256 225.1875 545.4375 C 224.68585 545.13246 223.9859 544.96877 223.125 544.96875 z M 241.90625 544.96875 C 240.00138 544.96876 238.51872 545.51858 237.4375 546.5625 C 236.35627 547.60645 235.81249 548.96832 235.8125 550.65625 C 235.8125 551.84256 236.08607 552.87213 236.625 553.75 C 237.16392 554.62786 237.836 555.2529 238.65625 555.65625 C 239.47649 556.05959 240.60091 556.28127 242.03125 556.28125 C 243.67851 556.28125 244.96248 556.03362 245.84375 555.5625 C 246.72499 555.09137 247.47008 554.30335 248.09375 553.21875 L 244 552.84375 C 243.74239 553.16914 243.50495 553.40243 243.28125 553.53125 C 242.91518 553.73462 242.53172 553.84372 242.125 553.84375 C 241.481 553.84375 240.96244 553.59276 240.5625 553.125 C 240.27778 552.79962 240.10581 552.32059 240.03125 551.65625 L 248.3125 551.65625 L 248.3125 551.1875 C 248.31249 549.76394 248.09273 548.60678 247.625 547.71875 C 247.15725 546.83073 246.48855 546.15528 245.59375 545.6875 C 244.69893 545.21977 243.45183 544.96877 241.90625 544.96875 z M 263 544.96875 C 261.73912 544.96876 260.71294 545.13662 259.90625 545.46875 C 259.39783 545.67891 258.88754 546.00705 258.40625 546.4375 C 257.92495 546.86797 257.55918 547.36393 257.28125 547.90625 C 256.90163 548.64515 256.71875 549.57576 256.71875 550.6875 C 256.71875 551.75179 256.84443 552.60603 257.15625 553.25 C 257.46808 553.89399 257.91966 554.42835 258.46875 554.90625 C 259.01784 555.38416 259.67488 555.75522 260.4375 555.96875 C 261.20012 556.18228 262.13563 556.28125 263.28125 556.28125 C 264.46754 556.28125 265.44935 556.11339 266.21875 555.78125 C 266.98814 555.44909 267.63013 554.9749 268.125 554.375 C 268.61984 553.77507 268.97055 553.07027 269.1875 552.25 L 265.25 551.8125 C 265.06696 552.38871 264.80693 552.81584 264.4375 553.09375 C 264.06804 553.37169 263.6048 553.49999 263.0625 553.5 C 262.41172 553.5 261.85779 553.27348 261.4375 552.8125 C 261.01721 552.35154 260.8125 551.6693 260.8125 550.78125 C 260.8125 549.78476 261.04506 549.05399 261.46875 548.5625 C 261.89242 548.07104 262.44033 547.8125 263.125 547.8125 C 263.6673 547.81251 264.08423 547.92242 264.40625 548.15625 C 264.72824 548.39013 264.97171 548.75778 265.09375 549.21875 L 268.96875 548.6875 C 268.5959 547.47409 267.95654 546.56793 267.03125 545.9375 C 266.10592 545.30708 264.76249 544.96877 263 544.96875 z M 276.78125 544.96875 C 274.88994 544.96876 273.39298 545.5261 272.28125 546.59375 C 271.16951 547.66143 270.59375 549.00896 270.59375 550.65625 C 270.59375 552.42554 271.24739 553.84608 272.5625 554.9375 C 273.63356 555.81875 275.04587 556.28127 276.78125 556.28125 C 278.72678 556.28125 280.24216 555.74838 281.34375 554.6875 C 282.4453 553.62661 282.99998 552.25457 283 550.59375 C 282.99999 549.11596 282.57553 547.88504 281.6875 546.875 C 280.58253 545.62092 278.94371 544.96877 276.78125 544.96875 z M 292.65625 544.96875 C 291.85634 544.96876 291.15977 545.12831 290.59375 545.40625 C 290.02771 545.68419 289.46211 546.15497 288.90625 546.8125 L 288.90625 545.21875 L 285.0625 545.21875 L 285.0625 556.03125 L 289.1875 556.03125 L 289.1875 550.5 C 289.18749 549.67976 289.3512 549.1093 289.65625 548.75 C 289.96129 548.39073 290.33796 548.21873 290.8125 548.21875 C 291.10398 548.21876 291.37682 548.30269 291.59375 548.46875 C 291.81067 548.63484 291.97436 548.85384 292.0625 549.125 C 292.11672 549.29448 292.12501 549.58802 292.125 550.0625 L 292.125 556.03125 L 296.28125 556.03125 L 296.28125 550.4375 C 296.28124 549.65794 296.42045 549.1025 296.71875 548.75 C 297.01701 548.39751 297.41816 548.21874 297.90625 548.21875 C 298.31975 548.21876 298.65955 548.4084 298.9375 548.78125 C 299.12729 549.01852 299.21872 549.3869 299.21875 549.875 L 299.21875 556.03125 L 303.375 556.03125 L 303.375 549.25 C 303.37498 547.78577 303.05701 546.68805 302.40625 546 C 301.75546 545.31196 300.84668 544.96877 299.6875 544.96875 C 298.90114 544.96876 298.22302 545.12078 297.6875 545.375 C 297.15196 545.62922 296.58826 546.10751 295.9375 546.8125 C 295.61888 546.20919 295.18911 545.74256 294.6875 545.4375 C 294.18585 545.13246 293.51717 544.96877 292.65625 544.96875 z M 154.28125 545.21875 L 154.28125 556.03125 L 158.4375 556.03125 L 158.4375 545.21875 L 154.28125 545.21875 z M 119.34375 547.4375 C 119.91317 547.43751 120.36963 547.59176 120.71875 547.9375 C 121.06785 548.28323 121.29365 548.85633 121.375 549.65625 L 117.28125 549.65625 C 117.34903 549.01226 117.49918 548.54415 117.75 548.21875 C 118.14317 547.69679 118.68619 547.43752 119.34375 547.4375 z M 176.09375 547.4375 C 176.66317 547.43751 177.11964 547.59176 177.46875 547.9375 C 177.81785 548.28323 178.0124 548.85633 178.09375 549.65625 L 174.03125 549.65625 C 174.09903 549.01226 174.24918 548.54415 174.5 548.21875 C 174.89317 547.69679 175.43619 547.43752 176.09375 547.4375 z M 242.09375 547.4375 C 242.66317 547.43751 243.11963 547.59176 243.46875 547.9375 C 243.81785 548.28323 244.04364 548.85633 244.125 549.65625 L 240.03125 549.65625 C 240.09903 549.01226 240.24917 548.54415 240.5 548.21875 C 240.89317 547.69679 241.43619 547.43752 242.09375 547.4375 z M 276.84375 547.84375 C 277.41317 547.84376 277.89484 548.04242 278.28125 548.5 C 278.66764 548.95758 278.84374 549.65825 278.84375 550.59375 C 278.84374 551.59703 278.66423 552.32707 278.28125 552.78125 C 277.89824 553.23544 277.40903 553.46875 276.8125 553.46875 C 276.22273 553.46875 275.73354 553.24224 275.34375 552.78125 C 274.95396 552.32029 274.74998 551.61885 274.75 550.65625 C 274.75 549.70721 274.95056 548.99563 275.34375 548.53125 C 275.73692 548.06691 276.24044 547.84379 276.84375 547.84375 z M 133.5625 548.0625 C 134.03023 548.06251 134.45247 548.28756 134.78125 548.6875 C 135.11002 549.08746 135.24999 549.70834 135.25 550.5625 C 135.24999 551.53188 135.08554 552.21489 134.75 552.625 C 134.41444 553.03512 133.99485 553.25002 133.5 553.25 C 132.96446 553.25 132.53661 553.04188 132.1875 552.625 C 131.83838 552.2081 131.65625 551.52246 131.65625 550.59375 C 131.65624 549.7464 131.83161 549.10438 132.1875 548.6875 C 132.54338 548.27061 132.99985 548.0625 133.5625 548.0625 z M 208.96875 550.90625 L 208.96875 551.5625 C 208.96874 552.0777 208.88483 552.49048 208.71875 552.8125 C 208.55266 553.1345 208.27155 553.40128 207.875 553.625 C 207.47843 553.8487 207.05471 553.96877 206.59375 553.96875 C 206.15312 553.96875 205.82084 553.86301 205.59375 553.65625 C 205.36665 553.4495 205.25 553.2004 205.25 552.875 C 205.25 552.59029 205.36327 552.31748 205.59375 552.09375 C 205.81745 551.87683 206.34692 551.66118 207.1875 551.4375 C 207.80437 551.28159 208.39931 551.10961 208.96875 550.90625 z M 250.25 551.875 L 250.25 556.03125 L 254.6875 556.03125 L 254.6875 551.875 L 250.25 551.875 z "
       xlink:href="#text2411"
       style="font-size:20.27070045px;font-style:normal;font-variant:normal;font-weight:900;font-stretch:normal;text-align:start;line-height:125%;writing-mode:lr-tb;text-anchor:start;fill:#333333;fill-opacity:1;stroke:none;stroke-width:1px;stroke-linecap:butt;stroke-linejoin:miter;stroke-opacity:1;font-family:Arial Black;-inkscape-font-specification:Arial Black Heavy"
       id="path2415"
       inkscape:href="#text2411"
       d="M 91.5,539.5 C 91.006638,539.49524 90.538101,539.716 90.227665,540.09948 C 89.917228,540.48296 89.798867,540.98719 89.90625,541.46875 L 93.21875,556.375 C 93.378198,557.12645 94.044345,557.66198 94.8125,557.65625 L 99.34375,557.65625 C 100.07272,557.6579 100.71265,557.17155 100.90625,556.46875 L 101.9375,552.71875 L 102.96875,556.46875 C 103.16235,557.17155 103.80228,557.6579 104.53125,557.65625 L 109.0625,557.65625 C 109.83066,557.66198 110.4968,557.12645 110.65625,556.375 L 111.625,552 C 111.77782,552.92305 112.02398,553.81834 112.5,554.59375 C 113.17346,555.69076 114.08757,556.55286 115.1875,557.09375 C 116.32227,557.65176 117.68384,557.90627 119.28125,557.90625 C 121.09054,557.90625 122.59441,557.66789 123.84375,557 C 124.63624,556.57632 125.29356,555.93752 125.875,555.21875 L 125.875,556.03125 C 125.87284,556.46289 126.04335,556.87747 126.34856,557.18269 C 126.65378,557.4879 127.06836,557.65841 127.5,557.65625 L 131.375,557.65625 C 131.73744,557.65698 132.08961,557.53592 132.375,557.3125 C 133.15577,557.67125 134.00379,557.90627 134.875,557.90625 C 136.03205,557.90625 137.13676,557.56032 138.0625,556.96875 C 138.78924,556.50434 139.34901,555.81839 139.8125,555.0625 C 140.21153,555.73586 140.71199,556.33569 141.375,556.78125 C 142.70225,557.67326 144.37375,557.90625 146.5,557.90625 C 148.03702,557.90625 149.32393,557.72991 150.4375,557.25 C 151.31712,556.87091 152.08342,556.28441 152.65625,555.5625 L 152.65625,556.03125 C 152.65409,556.46289 152.8246,556.87747 153.12981,557.18269 C 153.43503,557.4879 153.84961,557.65841 154.28125,557.65625 L 158.4375,557.65625 C 158.86914,557.65841 159.28372,557.4879 159.58894,557.18269 C 159.89415,556.87747 160.06466,556.46289 160.0625,556.03125 L 160.0625,549.84375 C 160.14489,549.86065 160.22848,549.8711 160.3125,549.875 L 160.3125,552.0625 C 160.3125,553.36728 160.40558,554.37488 160.8125,555.3125 C 161.17468,556.14709 161.78428,556.8428 162.59375,557.28125 C 163.48911,557.76625 164.47741,557.90627 165.65625,557.90625 C 166.69001,557.90625 167.73804,557.77287 168.84375,557.53125 C 169.64418,557.34972 170.18163,556.59729 170.09375,555.78125 L 170.0625,555.625 C 170.60914,556.23077 171.21982,556.74083 171.9375,557.09375 C 173.07227,557.65176 174.43384,557.90627 176.03125,557.90625 C 177.84054,557.90625 179.32718,557.6604 180.5625,557 C 181.50646,556.49534 182.25846,555.69166 182.90625,554.78125 L 182.90625,556.03125 C 182.90409,556.46289 183.0746,556.87747 183.37981,557.18269 C 183.68503,557.4879 184.09961,557.65841 184.53125,557.65625 L 188.875,557.65625 C 189.30664,557.65841 189.72122,557.4879 190.02644,557.18269 C 190.33165,556.87747 190.50216,556.46289 190.5,556.03125 L 190.5,553.125 L 193.09375,556.9375 C 193.39361,557.38637 193.89769,557.656 194.4375,557.65625 L 198.78125,557.65625 C 199.21289,557.65841 199.62747,557.4879 199.93269,557.18269 C 200.2379,556.87747 200.40841,556.46289 200.40625,556.03125 L 200.40625,555.75 C 200.60647,556.03564 200.76939,556.3598 201.03125,556.59375 C 202.07881,557.52964 203.48405,557.90627 205.03125,557.90625 C 206.19018,557.90625 207.2758,557.69666 208.21875,557.3125 C 208.31578,557.27197 208.37534,557.17081 208.46875,557.125 C 208.77274,557.46053 209.2035,557.65324 209.65625,557.65625 L 213.53125,557.65625 C 213.89369,557.65698 214.24586,557.53592 214.53125,557.3125 C 214.81664,557.53592 215.16881,557.65698 215.53125,557.65625 L 219.6875,557.65625 C 220.3253,557.65129 220.90059,557.27184 221.15625,556.6875 C 221.41191,557.27184 221.9872,557.65129 222.625,557.65625 L 226.78125,557.65625 C 227.41905,557.65129 227.99434,557.27184 228.25,556.6875 C 228.50566,557.27184 229.08095,557.65129 229.71875,557.65625 L 233.875,557.65625 C 234.30664,557.65841 234.72122,557.4879 235.02644,557.18269 C 235.33165,556.87747 235.50216,556.46289 235.5,556.03125 L 235.5,554.90625 C 236.14852,555.84357 236.95408,556.61016 237.9375,557.09375 C 239.07228,557.65176 240.43385,557.90627 242.03125,557.90625 C 243.84054,557.90625 245.34441,557.66789 246.59375,557 C 247.38624,556.57632 248.04356,555.93752 248.625,555.21875 L 248.625,556.03125 C 248.62284,556.46289 248.79335,556.87747 249.09856,557.18269 C 249.40378,557.4879 249.81836,557.65841 250.25,557.65625 L 254.6875,557.65625 C 255.11914,557.65841 255.53372,557.4879 255.83894,557.18269 C 256.14415,556.87747 256.31466,556.46289 256.3125,556.03125 L 256.3125,554.75 C 256.65907,555.23551 256.98052,555.75447 257.40625,556.125 C 258.12451,556.75015 259.00126,557.25161 260,557.53125 C 260.96829,557.80237 262.04252,557.90625 263.28125,557.90625 C 264.62005,557.90625 265.82809,557.70194 266.875,557.25 C 267.85799,556.82562 268.70949,556.21301 269.375,555.40625 C 269.66532,555.05427 269.78618,554.59124 270,554.1875 C 270.41274,554.91364 270.86782,555.63691 271.53125,556.1875 C 272.92646,557.33545 274.75859,557.90627 276.78125,557.90625 C 279.02199,557.90625 281.02839,557.23088 282.46875,555.84375 C 282.89539,555.43286 283.13507,554.90292 283.4375,554.40625 L 283.4375,556.03125 C 283.43534,556.46289 283.60585,556.87747 283.91106,557.18269 C 284.21628,557.4879 284.63086,557.65841 285.0625,557.65625 L 289.1875,557.65625 C 289.8253,557.65129 290.40059,557.27184 290.65625,556.6875 C 290.91191,557.27184 291.4872,557.65129 292.125,557.65625 L 296.28125,557.65625 C 296.91905,557.65129 297.49434,557.27184 297.75,556.6875 C 298.00566,557.27184 298.58095,557.65129 299.21875,557.65625 L 303.375,557.65625 C 303.80664,557.65841 304.22122,557.4879 304.52644,557.18269 C 304.83165,556.87747 305.00216,556.46289 305,556.03125 L 305,549.25 C 304.99998,547.55172 304.65374,545.99573 303.59375,544.875 C 302.61106,543.83606 301.16577,543.34378 299.6875,543.34375 C 298.69278,543.34376 297.78761,543.53236 297,543.90625 C 296.64755,544.07356 296.3712,544.41812 296.0625,544.65625 C 295.86198,544.48142 295.75871,544.20084 295.53125,544.0625 C 294.70403,543.55949 293.72208,543.34377 292.65625,543.34375 C 291.66308,543.34376 290.7426,543.58434 289.9375,543.96875 C 289.64797,543.72736 289.2832,543.59472 288.90625,543.59375 L 285.0625,543.59375 C 284.63086,543.59159 284.21628,543.7621 283.91106,544.06731 C 283.60585,544.37253 283.43534,544.78711 283.4375,545.21875 L 283.4375,546.71875 C 283.25078,546.42094 283.14188,546.08051 282.90625,545.8125 C 281.46088,544.17208 279.26875,543.34377 276.78125,543.34375 C 274.57232,543.34376 272.5882,544.06233 271.15625,545.4375 C 270.65389,545.91995 270.33593,546.52644 270,547.125 C 269.50228,546.12108 268.84636,545.21299 267.9375,544.59375 C 266.63284,543.7049 264.96937,543.34377 263,543.34375 C 261.59564,543.34376 260.35695,543.52587 259.28125,543.96875 C 258.57671,544.25998 257.94398,544.68193 257.34375,545.21875 C 256.70589,545.78924 256.2018,546.4576 255.84375,547.15625 C 255.36021,548.09741 255.19315,549.19751 255.15625,550.34375 C 255.00551,550.28945 254.84753,550.25785 254.6875,550.25 L 250.25,550.25 C 250.11248,550.25347 249.97596,550.27447 249.84375,550.3125 C 249.76526,549.0872 249.57817,547.9478 249.0625,546.96875 C 248.45619,545.81768 247.51175,544.8606 246.34375,544.25 C 245.11284,543.60659 243.62686,543.34377 241.90625,543.34375 C 239.69028,543.34376 237.72097,544.04637 236.3125,545.40625 C 235.81904,545.88269 235.51105,546.49984 235.1875,547.09375 C 234.96282,546.26267 234.63761,545.48307 234.0625,544.875 C 233.09755,543.85482 231.66576,543.34378 230.1875,543.34375 C 229.19278,543.34376 228.28762,543.53235 227.5,543.90625 C 227.15957,544.06785 226.87408,544.42253 226.5625,544.65625 C 226.36187,544.47565 226.26804,544.2065 226.03125,544.0625 C 225.17855,543.54399 224.19082,543.34377 223.125,543.34375 C 222.13205,543.34376 221.22226,543.59381 220.4375,543.96875 C 220.14797,543.72736 219.7832,543.59472 219.40625,543.59375 L 215.53125,543.59375 C 215.09961,543.59159 214.68503,543.7621 214.37981,544.06731 C 214.0746,544.37253 213.90409,544.78711 213.90625,545.21875 L 213.90625,546.28125 C 213.63525,545.74802 213.36283,545.21189 212.9375,544.84375 C 212.20804,544.20304 211.2798,543.77821 210.28125,543.59375 C 209.38413,543.42808 208.30982,543.34377 207,543.34375 C 206.1264,543.34376 205.3082,543.43318 204.5625,543.5625 C 203.76679,543.70054 203.09339,543.92154 202.5,544.25 C 201.80989,544.63046 201.20418,545.10973 200.75,545.75 C 200.58752,545.97904 200.52996,546.3024 200.40625,546.5625 L 200.40625,541.125 C 200.40841,540.69336 200.2379,540.27878 199.93269,539.97356 C 199.62747,539.66835 199.21289,539.49784 198.78125,539.5 L 194.4375,539.5 C 194.00586,539.49784 193.59128,539.66835 193.28606,539.97356 C 192.98085,540.27878 192.81034,540.69336 192.8125,541.125 L 192.8125,544.09375 L 190.1875,540.21875 C 189.88764,539.76988 189.38356,539.50025 188.84375,539.5 L 184.53125,539.5 C 184.09961,539.49784 183.68503,539.66835 183.37981,539.97356 C 183.0746,540.27878 182.90409,540.69336 182.90625,541.125 L 182.90625,546.75 C 182.28472,545.68517 181.38778,544.81213 180.3125,544.25 C 179.09528,543.61375 177.62685,543.34377 175.90625,543.34375 C 173.69028,543.34376 171.72097,544.04638 170.3125,545.40625 C 170.17543,545.5386 170.12412,545.73265 170,545.875 L 170,545.21875 C 170.00216,544.78711 169.83165,544.37253 169.52644,544.06731 C 169.22122,543.7621 168.80664,543.59159 168.375,543.59375 L 167.71875,543.59375 L 167.71875,541.125 C 167.72203,540.55595 167.42594,540.02706 166.93911,539.7324 C 166.45227,539.43774 165.84639,539.42069 165.34375,539.6875 L 161.1875,541.8125 C 160.64981,542.09017 160.31218,542.64485 160.3125,543.25 L 160.3125,543.625 C 160.22929,543.61855 160.14571,543.61855 160.0625,543.625 L 160.0625,541.125 C 160.06466,540.69336 159.89415,540.27878 159.58894,539.97356 C 159.28372,539.66835 158.86914,539.49784 158.4375,539.5 L 154.28125,539.5 C 153.84961,539.49784 153.43503,539.66835 153.12981,539.97356 C 152.8246,540.27878 152.65409,540.69336 152.65625,541.125 L 152.65625,543.9375 C 152.66161,544.1648 152.71486,544.38842 152.8125,544.59375 C 152.71902,544.78949 152.66588,545.00204 152.65625,545.21875 L 152.65625,546.28125 C 152.41096,545.86209 152.23978,545.39882 151.90625,545.0625 C 151.29817,544.44942 150.53465,544.01151 149.71875,543.75 C 148.823,543.46298 147.75996,543.34377 146.375,543.34375 C 145.02052,543.34376 143.89351,543.50868 142.9375,543.84375 C 141.98283,544.17835 141.12806,544.74878 140.5,545.53125 C 140.27136,545.81612 140.12191,546.15919 139.96875,546.5 C 139.7502,546.10458 139.61845,545.64856 139.3125,545.3125 C 138.17573,544.06388 136.56193,543.34378 134.84375,543.34375 C 134.2939,543.34376 133.81041,543.52632 133.3125,543.65625 L 133.3125,541.125 C 133.31466,540.69336 133.14415,540.27878 132.83894,539.97356 C 132.53372,539.66835 132.11914,539.49784 131.6875,539.5 L 127.5,539.5 C 127.06836,539.49784 126.65378,539.66835 126.34856,539.97356 C 126.04335,540.27878 125.87284,540.69336 125.875,541.125 L 125.875,546.40625 C 125.26806,545.51833 124.50725,544.74389 123.5625,544.25 C 122.34528,543.61375 120.87685,543.34377 119.15625,543.34375 C 116.94028,543.34376 114.97097,544.04638 113.5625,545.40625 C 113.24408,545.71369 113.09183,546.14116 112.84375,546.5 L 113.9375,541.46875 C 114.04488,540.98719 113.92652,540.48296 113.61609,540.09948 C 113.30565,539.716 112.83711,539.49524 112.34375,539.5 L 108,539.5 C 107.22222,539.49723 106.55268,540.04862 106.40625,540.8125 L 106.125,542.34375 L 105.65625,540.6875 C 105.46265,539.9847 104.82272,539.49835 104.09375,539.5 L 99.75,539.5 C 99.021027,539.49835 98.381096,539.9847 98.1875,540.6875 L 97.75,542.28125 L 97.46875,540.8125 C 97.322323,540.04862 96.652781,539.49723 95.875,539.5 L 91.5,539.5 z M 152.65625,549.25 L 152.65625,549.6875 C 152.56523,549.57608 152.41444,549.51073 152.3125,549.40625 C 152.43279,549.36777 152.54816,549.31533 152.65625,549.25 z M 263.125,549.4375 C 263.44887,549.43751 263.4887,549.48324 263.46875,549.46875 C 263.45245,549.45691 263.49093,549.47271 263.53125,549.625 C 263.63626,550.01193 263.88128,550.34604 264.21875,550.5625 C 263.98436,550.76005 263.81095,551.02016 263.71875,551.3125 C 263.59968,551.68735 263.49347,551.79391 263.46875,551.8125 C 263.4271,551.84383 263.34982,551.87499 263.0625,551.875 C 262.78689,551.875 262.74644,551.85195 262.625,551.71875 C 262.56372,551.65155 262.4375,551.42084 262.4375,550.78125 C 262.4375,550.0363 262.59025,549.73781 262.6875,549.625 C 262.84416,549.44327 262.84733,549.4375 263.125,549.4375 z M 276.84375,549.46875 C 277.03715,549.46875 276.92332,549.40344 277.03125,549.53125 C 277.04898,549.55225 277.21874,549.86113 277.21875,550.59375 C 277.21874,551.40419 277.02433,551.7582 277.03125,551.75 C 276.90972,551.89412 276.98748,551.84375 276.8125,551.84375 C 276.63669,551.84375 276.72151,551.9011 276.59375,551.75 C 276.54655,551.69418 276.37498,551.39044 276.375,550.65625 C 276.375,549.93499 276.52042,549.6122 276.5625,549.5625 C 276.68083,549.42275 276.63899,549.46876 276.84375,549.46875 z M 200.40625,549.59375 C 200.55714,549.70548 200.72633,549.79008 200.90625,549.84375 C 200.81838,549.92502 200.70709,549.97232 200.625,550.0625 C 200.52762,550.16949 200.49149,550.32059 200.40625,550.4375 L 200.40625,549.59375 z M 133.53125,549.71875 C 133.48176,549.65855 133.62499,549.88495 133.625,550.5625 C 133.62499,551.34904 133.44239,551.66416 133.5,551.59375 C 133.40744,551.70688 133.52674,551.625 133.5,551.625 C 133.38332,551.625 133.53921,551.7152 133.4375,551.59375 C 133.47088,551.63361 133.28125,551.31109 133.28125,550.59375 C 133.28124,549.96948 133.41228,549.74294 133.40625,549.75 C 133.47084,549.67433 133.48472,549.71155 133.53125,549.71875 z M 167.71875,549.875 L 168.34375,549.875 C 168.31692,550.14548 168.1875,550.37898 168.1875,550.65625 C 168.1875,550.92741 168.25648,551.17292 168.28125,551.4375 C 168.08968,551.43518 167.89922,551.46692 167.71875,551.53125 L 167.71875,549.875 z M 269.03125,550.3125 C 269.0262,550.42146 268.9692,550.515 268.96875,550.625 L 267.75,550.46875 L 269.03125,550.3125 z" />
    <text
       xml:space="preserve"
       style="font-size:20.82468224px;font-style:normal;font-variant:normal;font-weight:900;font-stretch:normal;text-align:start;line-height:125%;writing-mode:lr-tb;text-anchor:start;fill:#ffffff;fill-opacity:1;stroke:none;stroke-width:1px;stroke-linecap:butt;stroke-linejoin:miter;stroke-opacity:1;font-family:Arial Black;-inkscape-font-specification:Arial Black Heavy"
       x="91.508904"
       y="556.02472"
       id="text2411"
       sodipodi:linespacing="125%"><tspan
         sodipodi:role="line"
         id="tspan2413"
         x="91.508904"
         y="556.02472">WebsiteName.com</tspan></text>
    <path
       sodipodi:type="inkscape:offset"
       inkscape:radius="1.1221256"
       inkscape:original="M 135.40625 561.8125 L 131.6875 569.53125 L 132.71875 569.53125 L 136.4375 561.8125 L 135.40625 561.8125 z M 103.34375 561.9375 L 101.75 569.40625 L 103.21875 569.40625 L 104.78125 561.9375 L 103.34375 561.9375 z M 155.625 561.9375 L 154.0625 569.40625 L 155.53125 569.40625 L 157.09375 561.9375 L 155.625 561.9375 z M 158.53125 561.9375 L 158.25 563.25 L 159.71875 563.25 L 160 561.9375 L 158.53125 561.9375 z M 141.53125 562.125 L 139.84375 563.125 L 139.6875 564 L 138.96875 564 L 138.75 565.09375 L 139.4375 565.09375 L 139 567.25 C 138.87407 567.85243 138.81249 568.23945 138.8125 568.40625 C 138.8125 568.76022 138.9214 569.05089 139.15625 569.25 C 139.39109 569.44911 139.76391 569.53126 140.28125 569.53125 C 140.54672 569.53125 140.81064 569.51983 141.0625 569.46875 L 141.28125 568.375 C 141.02258 568.39883 140.87717 568.40622 140.8125 568.40625 C 140.6253 568.40625 140.47773 568.37547 140.40625 568.3125 C 140.33477 568.24954 140.3125 568.17484 140.3125 568.0625 C 140.3125 568.00464 140.3524 567.7556 140.4375 567.34375 L 140.90625 565.09375 L 141.8125 565.09375 L 142.03125 564 L 141.125 564 L 141.53125 562.125 z M 99.03125 563.875 C 98.153135 563.87501 97.508364 564.09898 97.0625 564.53125 C 96.742566 564.84098 96.5625 565.19613 96.5625 565.625 C 96.562499 566.05385 96.732355 566.39079 97.0625 566.65625 C 97.273518 566.82643 97.83383 567.08229 98.71875 567.375 C 99.04889 567.48392 99.237615 567.55011 99.3125 567.625 C 99.38397 567.70328 99.437496 567.80757 99.4375 567.90625 C 99.437496 568.0526 99.358294 568.17917 99.21875 568.28125 C 99.017938 568.43101 98.739792 568.49999 98.40625 568.5 C 98.082911 568.5 97.843445 568.43672 97.65625 568.3125 C 97.469054 568.18827 97.313433 567.98701 97.1875 567.6875 L 95.75 567.90625 C 95.903159 568.42699 96.197852 568.83741 96.625 569.125 C 97.052142 569.4126 97.654683 569.53126 98.4375 569.53125 C 99.223713 569.53125 99.848996 569.34651 100.28125 568.96875 C 100.71349 568.59096 100.93749 568.13896 100.9375 567.625 C 100.93749 567.22679 100.7466 566.90752 100.40625 566.625 C 100.16459 566.42419 99.683486 566.20761 98.96875 566 C 98.505866 565.86386 98.241332 565.7732 98.15625 565.71875 C 98.020106 565.63026 97.968748 565.51116 97.96875 565.375 C 97.968748 565.24227 98.021807 565.13334 98.15625 565.03125 C 98.290687 564.92915 98.506182 564.87502 98.8125 564.875 C 99.118815 564.875 99.375924 564.9298 99.59375 565.0625 C 99.753712 565.16121 99.866018 565.33383 99.9375 565.53125 L 101.3125 565.28125 C 101.2172 564.8456 100.98237 564.50527 100.625 564.25 C 100.26762 563.99474 99.728968 563.87498 99.03125 563.875 z M 107.96875 563.875 C 107.04639 563.87501 106.31669 564.1527 105.75 564.75 C 105.18331 565.34732 104.875 566.15224 104.875 567.15625 C 104.875 567.5851 104.9935 568.00059 105.1875 568.375 C 105.3815 568.74939 105.66769 569.04581 106.0625 569.25 C 106.45731 569.45421 106.89572 569.53126 107.40625 569.53125 C 108.34903 569.53125 109.12591 569.2336 109.6875 568.59375 C 110.24908 567.95389 110.53124 567.19062 110.53125 566.3125 C 110.53124 565.56713 110.29301 564.97199 109.84375 564.53125 C 109.39448 564.0905 108.76857 563.87498 107.96875 563.875 z M 113.875 563.875 C 113.43934 563.87501 113.01239 564.00898 112.59375 564.28125 C 112.17511 564.55354 111.85644 564.93783 111.625 565.46875 C 111.39356 565.99971 111.28125 566.58228 111.28125 567.21875 C 111.28125 567.9403 111.44089 568.50059 111.78125 568.875 C 112.1216 569.24939 112.5628 569.43747 113.09375 569.4375 C 113.63491 569.4375 114.18037 569.23451 114.6875 568.8125 L 114.625 569.0625 C 114.53991 569.50836 114.4607 569.80473 114.40625 569.9375 C 114.31775 570.14852 114.20204 570.27968 114.0625 570.375 C 113.8753 570.49753 113.62222 570.56249 113.3125 570.5625 C 113.11509 570.5625 112.98902 570.55614 112.875 570.5 C 112.76098 570.44384 112.67605 570.36122 112.625 570.28125 C 112.57395 570.20127 112.53125 570.09403 112.53125 569.9375 L 111 569.6875 C 110.98979 569.76578 110.96875 569.8416 110.96875 569.90625 C 110.96875 570.51548 111.17109 570.9567 111.5625 571.21875 C 111.95391 571.48082 112.51545 571.62501 113.28125 571.625 C 113.61139 571.625 113.93625 571.58569 114.21875 571.53125 C 114.50124 571.47679 114.72988 571.4055 114.9375 571.28125 C 115.14511 571.15702 115.33261 570.99626 115.46875 570.8125 C 115.60489 570.62871 115.73823 570.37222 115.84375 570.0625 C 115.94925 569.75278 116.06559 569.22494 116.21875 568.5 L 117.15625 564 L 115.78125 564 L 115.59375 564.96875 C 115.42697 564.625 115.1745 564.34683 114.875 564.15625 C 114.57548 563.96566 114.23577 563.87498 113.875 563.875 z M 120.5625 563.875 C 119.892 563.87501 119.34422 564.00898 118.9375 564.28125 C 118.53078 564.55354 118.25712 564.92298 118.09375 565.40625 L 119.53125 565.53125 C 119.5857 565.33385 119.69229 565.1697 119.84375 565.0625 C 119.9952 564.95529 120.20668 564.90624 120.46875 564.90625 C 120.7172 564.90625 120.87407 564.95699 121 565.0625 C 121.12593 565.16801 121.21875 565.31216 121.21875 565.46875 C 121.21875 565.59128 121.18626 565.76457 121.125 565.96875 C 120.89015 566.05044 120.41647 566.09839 119.71875 566.15625 C 118.89169 566.22092 118.32164 566.40903 118 566.71875 C 117.67837 567.02847 117.5 567.4514 117.5 567.96875 C 117.5 568.43163 117.6448 568.79933 117.9375 569.09375 C 118.2302 569.38816 118.61323 569.53126 119.0625 569.53125 C 119.34499 569.53125 119.62715 569.47141 119.90625 569.34375 C 120.18534 569.21612 120.44183 569.05072 120.65625 568.8125 C 120.66986 569.02352 120.69213 569.20885 120.75 569.40625 L 122.1875 569.40625 C 122.10581 569.12376 122.0625 568.88766 122.0625 568.65625 C 122.06249 568.39758 122.1383 567.92792 122.28125 567.28125 C 122.45482 566.49844 122.53356 566.02752 122.5625 565.84375 C 122.59142 565.65996 122.62499 565.47586 122.625 565.3125 C 122.62499 564.90748 122.45854 564.56206 122.125 564.28125 C 121.79145 564.00046 121.26022 563.87498 120.5625 563.875 z M 127.59375 563.875 C 127.2602 563.87501 126.95746 563.93489 126.65625 564.0625 C 126.35503 564.19014 126.03466 564.38798 125.6875 564.6875 L 125.8125 564 L 124.4375 564 L 123.3125 569.40625 L 124.75 569.40625 L 125.21875 567.1875 C 125.35489 566.53743 125.48483 566.1173 125.59375 565.90625 C 125.7435 565.61015 125.95668 565.36789 126.21875 565.1875 C 126.48082 565.00712 126.72308 564.90624 126.9375 564.90625 C 127.1349 564.90625 127.26438 564.95527 127.375 565.0625 C 127.48561 565.16972 127.5625 565.34406 127.5625 565.53125 C 127.5625 565.61975 127.50154 565.88427 127.40625 566.34375 L 126.78125 569.40625 L 128.21875 569.40625 L 128.875 566.34375 C 128.98731 565.8128 129.03125 565.47187 129.03125 565.28125 C 129.03124 564.85922 128.91322 564.50527 128.65625 564.25 C 128.39928 563.99474 128.03961 563.87498 127.59375 563.875 z M 144.96875 563.875 C 144.29825 563.87501 143.75047 564.00898 143.34375 564.28125 C 142.93703 564.55354 142.66337 564.92298 142.5 565.40625 L 143.9375 565.53125 C 143.99195 565.33385 144.09854 565.1697 144.25 565.0625 C 144.40145 564.95529 144.58167 564.90624 144.84375 564.90625 C 145.0922 564.90625 145.28031 564.95699 145.40625 565.0625 C 145.53218 565.16801 145.59375 565.31216 145.59375 565.46875 C 145.59375 565.59128 145.59251 565.76457 145.53125 565.96875 C 145.2964 566.05044 144.82271 566.09839 144.125 566.15625 C 143.29794 566.22092 142.72789 566.40903 142.40625 566.71875 C 142.08462 567.02847 141.90626 567.4514 141.90625 567.96875 C 141.90625 568.43163 142.05105 568.79933 142.34375 569.09375 C 142.63645 569.38816 143.01948 569.53126 143.46875 569.53125 C 143.75124 569.53125 144.03341 569.47141 144.3125 569.34375 C 144.59159 569.21612 144.81683 569.05072 145.03125 568.8125 C 145.04486 569.02352 145.09838 569.20885 145.15625 569.40625 L 146.5625 569.40625 C 146.48081 569.12376 146.46874 568.88766 146.46875 568.65625 C 146.46874 568.39758 146.5133 567.92792 146.65625 567.28125 C 146.82982 566.49844 146.93981 566.02752 146.96875 565.84375 C 146.99767 565.65996 147.03124 565.47586 147.03125 565.3125 C 147.03124 564.90748 146.86479 564.56206 146.53125 564.28125 C 146.1977 564.00046 145.66647 563.87498 144.96875 563.875 z M 150.5 563.875 C 150.06434 563.87501 149.63738 564.00898 149.21875 564.28125 C 148.80011 564.55354 148.48144 564.93783 148.25 565.46875 C 148.01856 565.99971 147.90626 566.58228 147.90625 567.21875 C 147.90625 567.9403 148.06589 568.50059 148.40625 568.875 C 148.7466 569.24939 149.1878 569.43747 149.71875 569.4375 C 150.25991 569.4375 150.77412 569.23451 151.28125 568.8125 L 151.25 569.0625 C 151.16491 569.50836 151.0857 569.80473 151.03125 569.9375 C 150.94275 570.14852 150.82704 570.27968 150.6875 570.375 C 150.5003 570.49753 150.24722 570.56249 149.9375 570.5625 C 149.74009 570.5625 149.58276 570.55614 149.46875 570.5 C 149.35473 570.44384 149.26979 570.36122 149.21875 570.28125 C 149.1677 570.20127 149.15625 570.09403 149.15625 569.9375 L 147.59375 569.6875 C 147.58354 569.76578 147.59375 569.8416 147.59375 569.90625 C 147.59375 570.51548 147.79609 570.9567 148.1875 571.21875 C 148.57891 571.48082 149.14046 571.62501 149.90625 571.625 C 150.23639 571.625 150.56125 571.58569 150.84375 571.53125 C 151.12624 571.47679 151.35488 571.4055 151.5625 571.28125 C 151.77011 571.15702 151.95761 570.99626 152.09375 570.8125 C 152.22989 570.62871 152.33198 570.37222 152.4375 570.0625 C 152.543 569.75278 152.69058 569.22494 152.84375 568.5 L 153.78125 564 L 152.40625 564 L 152.1875 564.96875 C 152.02072 564.625 151.7995 564.34683 151.5 564.15625 C 151.20048 563.96566 150.86077 563.87498 150.5 563.875 z M 164.1875 563.875 C 163.85395 563.87501 163.55121 563.93489 163.25 564.0625 C 162.94878 564.19014 162.6284 564.38798 162.28125 564.6875 L 162.40625 564 L 161.03125 564 L 159.90625 569.40625 L 161.34375 569.40625 L 161.8125 567.1875 C 161.94864 566.53743 162.07859 566.1173 162.1875 565.90625 C 162.33725 565.61015 162.55042 565.36789 162.8125 565.1875 C 163.07457 565.00712 163.31682 564.90624 163.53125 564.90625 C 163.72865 564.90625 163.85812 564.95527 163.96875 565.0625 C 164.07936 565.16972 164.15625 565.34406 164.15625 565.53125 C 164.15625 565.61975 164.0953 565.88427 164 566.34375 L 163.375 569.40625 L 164.84375 569.40625 L 165.46875 566.34375 C 165.58106 565.8128 165.62499 565.47187 165.625 565.28125 C 165.62499 564.85922 165.50696 564.50527 165.25 564.25 C 164.99303 563.99474 164.63335 563.87498 164.1875 563.875 z M 169.46875 563.875 C 168.42727 563.87501 167.62408 564.24844 167.0625 565.03125 C 166.65067 565.60985 166.43749 566.2893 166.4375 567.03125 C 166.4375 567.79024 166.66892 568.38258 167.125 568.84375 C 167.58107 569.30493 168.17789 569.53126 168.90625 569.53125 C 169.4372 569.53125 169.91661 569.42 170.34375 569.15625 C 170.77089 568.89248 171.11973 568.4963 171.375 567.96875 L 170.0625 567.75 C 169.79021 568.25372 169.4242 568.49999 168.9375 568.5 C 168.64139 568.5 168.36217 568.37747 168.15625 568.15625 C 167.95033 567.93502 167.875 567.642 167.875 567.28125 C 167.875 567.25062 167.87159 567.2141 167.875 567.15625 L 171.53125 567.15625 C 171.59931 566.87376 171.65624 566.57273 171.65625 566.21875 C 171.65624 565.48019 171.4539 564.87887 171.0625 564.46875 C 170.67109 564.05863 170.13243 563.87498 169.46875 563.875 z M 158.09375 564 L 156.96875 569.40625 L 158.4375 569.40625 L 159.5625 564 L 158.09375 564 z M 114.15625 564.90625 C 114.42853 564.90625 114.66738 565.04643 114.875 565.28125 C 115.08261 565.5161 115.1875 565.80289 115.1875 566.1875 C 115.1875 566.52105 115.09637 566.86137 114.96875 567.21875 C 114.84111 567.57612 114.67745 567.86852 114.4375 568.0625 C 114.19755 568.2565 113.94276 568.34376 113.6875 568.34375 C 113.40841 568.34375 113.18549 568.24735 113 568.03125 C 112.81451 567.81513 112.71875 567.50559 112.71875 567.09375 C 112.71875 566.82828 112.76608 566.52102 112.875 566.1875 C 113.01795 565.75525 113.18672 565.42638 113.40625 565.21875 C 113.62578 565.01114 113.89418 564.90624 114.15625 564.90625 z M 150.75 564.90625 C 151.02228 564.90625 151.26113 565.04643 151.46875 565.28125 C 151.67636 565.5161 151.78125 565.80289 151.78125 566.1875 C 151.78125 566.52105 151.72137 566.86137 151.59375 567.21875 C 151.46611 567.57612 151.30244 567.86852 151.0625 568.0625 C 150.82255 568.2565 150.56776 568.34376 150.3125 568.34375 C 150.03341 568.34375 149.77924 568.24735 149.59375 568.03125 C 149.40826 567.81513 149.34375 567.50559 149.34375 567.09375 C 149.34375 566.82828 149.39108 566.52102 149.5 566.1875 C 149.64295 565.75525 149.81171 565.42638 150.03125 565.21875 C 150.25078 565.01114 150.48792 564.90624 150.75 564.90625 z M 169.3125 564.90625 C 169.61541 564.90625 169.85086 565.01794 170.03125 565.21875 C 170.21163 565.41956 170.3125 565.72339 170.3125 566.125 C 170.3125 566.15904 170.31589 566.21658 170.3125 566.28125 L 168 566.28125 C 168.08509 565.83539 168.26005 565.47805 168.5 565.25 C 168.73995 565.02197 169.00958 564.90624 169.3125 564.90625 z M 107.96875 564.96875 C 108.28868 564.96875 108.54749 565.07194 108.75 565.28125 C 108.95251 565.49057 109.06249 565.77785 109.0625 566.125 C 109.0625 566.82273 108.85675 567.41953 108.46875 567.90625 C 108.19646 568.25001 107.87036 568.40624 107.46875 568.40625 C 107.14881 568.40625 106.89851 568.29052 106.6875 568.0625 C 106.47648 567.83446 106.34375 567.54425 106.34375 567.15625 C 106.34375 566.84313 106.42636 566.49771 106.5625 566.125 C 106.69864 565.75232 106.87994 565.44568 107.125 565.25 C 107.37005 565.0543 107.65222 564.96875 107.96875 564.96875 z M 120.90625 566.875 L 120.875 567.09375 C 120.80012 567.45112 120.722 567.70654 120.625 567.875 C 120.528 568.04348 120.3832 568.17401 120.1875 568.28125 C 119.99179 568.38846 119.78372 568.43752 119.5625 568.4375 C 119.36169 568.4375 119.18503 568.39865 119.0625 568.28125 C 118.93997 568.16383 118.875 568.0139 118.875 567.84375 C 118.875 567.63614 118.96503 567.46628 119.125 567.34375 C 119.34963 567.17358 119.82733 567.05724 120.5625 566.96875 C 120.70885 566.94833 120.81775 566.8988 120.90625 566.875 z M 145.3125 566.875 L 145.28125 567.09375 C 145.20637 567.45112 145.12824 567.70654 145.03125 567.875 C 144.93425 568.04348 144.78945 568.17401 144.59375 568.28125 C 144.39804 568.38846 144.18997 568.43752 143.96875 568.4375 C 143.76794 568.4375 143.59128 568.39865 143.46875 568.28125 C 143.34622 568.16383 143.28125 568.0139 143.28125 567.84375 C 143.28125 567.63614 143.37128 567.46628 143.53125 567.34375 C 143.75588 567.17358 144.23358 567.05724 144.96875 566.96875 C 145.1151 566.94833 145.224 566.8988 145.3125 566.875 z "
       xlink:href="#text2417"
       style="font-size:10.43869686px;font-style:italic;font-variant:normal;font-weight:bold;font-stretch:normal;text-align:start;line-height:125%;writing-mode:lr-tb;text-anchor:start;opacity:1;fill:#333333;fill-opacity:1;stroke:none;stroke-width:1px;stroke-linecap:butt;stroke-linejoin:miter;stroke-opacity:1;font-family:Arial;-inkscape-font-specification:Arial Bold Italic"
       id="path2421"
       inkscape:href="#text2417"
       d="M 184.09375,560.6875 C 183.70801,560.7397 183.37687,560.98805 183.21875,561.34375 L 179.53125,569.0625 C 179.37165,569.40706 179.39713,569.80896 179.59895,570.13062 C 179.80078,570.45228 180.15157,570.65005 180.53125,570.65625 L 181.5625,570.65625 C 181.99435,570.64816 182.38323,570.39296 182.5625,570 L 186.25,562.28125 C 186.4096,561.93669 186.38412,561.53479 186.1823,561.21313 C 185.98047,560.89147 185.62968,560.6937 185.25,560.6875 L 184.21875,560.6875 C 184.17712,560.68518 184.13538,560.68518 184.09375,560.6875 z M 152.03125,560.8125 C 151.54524,560.87097 151.15321,561.23772 151.0625,561.71875 L 150.5625,564.0625 C 150.3849,563.82694 150.3273,563.51058 150.09375,563.34375 C 149.46267,562.893 148.70114,562.74998 147.875,562.75 C 146.80608,562.75001 145.80752,563.02674 145.09375,563.71875 C 144.59078,564.20569 144.28125,564.93654 144.28125,565.625 C 144.28125,566.05243 144.5942,566.37642 144.8125,566.75 L 144.40625,566.8125 C 144.09656,566.8702 143.82539,567.05541 143.65897,567.32287 C 143.49254,567.59034 143.4462,567.91543 143.53125,568.21875 C 143.74932,568.96018 144.20467,569.63222 144.84375,570.0625 C 145.55782,570.54329 146.38504,570.65626 147.28125,570.65625 C 148.14424,570.65625 148.94351,570.40686 149.59375,569.9375 C 149.79053,570.30617 150.17587,570.53496 150.59375,570.53125 L 152.0625,570.53125 C 152.5962,570.52768 153.05354,570.14873 153.15625,569.625 L 153.25,569.15625 C 153.54009,569.58892 153.89196,570.00018 154.375,570.25 C 154.99005,570.56812 155.62655,570.65626 156.25,570.65625 C 157.15673,570.65625 157.97579,570.30165 158.6875,569.78125 C 158.68995,569.80565 158.6875,569.92408 158.6875,569.90625 C 158.6875,570.72556 159.00035,571.65436 159.75,572.15625 C 160.41853,572.60386 161.21834,572.75001 162.125,572.75 C 162.54421,572.75 162.9242,572.68779 163.25,572.625 C 163.58561,572.5603 163.94436,572.48902 164.34375,572.25 C 164.70452,572.03412 164.99325,571.73092 165.1875,571.46875 C 165.41227,571.16532 165.58116,570.84136 165.71875,570.4375 C 165.78689,570.23746 165.8474,569.90239 165.90625,569.65625 C 165.9571,569.71911 165.94321,569.81788 166,569.875 C 166.48146,570.35927 167.18744,570.65627 167.875,570.65625 C 168.26362,570.65625 168.65609,570.55533 169.03125,570.40625 C 169.19535,570.491 169.37783,570.53393 169.5625,570.53125 L 171,570.53125 C 171.198,570.5297 171.39207,570.47579 171.5625,570.375 C 171.73293,570.47579 171.927,570.5297 172.125,570.53125 L 173.59375,570.53125 C 174.01163,570.53496 174.39697,570.30617 174.59375,569.9375 C 174.79053,570.30617 175.17587,570.53496 175.59375,570.53125 L 177.0625,570.53125 C 177.5962,570.52768 178.05354,570.14873 178.15625,569.625 L 178.78125,566.5625 C 178.8927,566.03561 179,565.76695 179,565.28125 C 178.99998,564.59464 178.72077,563.9364 178.25,563.46875 C 177.77839,563.00028 177.08433,562.74997 176.4375,562.75 C 176.02165,562.75001 175.59946,562.84894 175.1875,563 C 175.0234,562.91525 174.84092,562.87232 174.65625,562.875 L 173.25,562.875 C 172.7163,562.87857 172.25896,563.25752 172.15625,563.78125 L 172.0625,564.25 C 171.91049,563.97281 171.89163,563.63567 171.65625,563.4375 C 171.02606,562.90699 170.23852,562.74998 169.40625,562.75 C 168.58629,562.75001 167.80861,562.90704 167.15625,563.34375 C 167.08062,563.39438 167.07067,563.50551 167,563.5625 C 166.82545,563.14708 166.41935,562.87635 165.96875,562.875 L 164.625,562.875 C 164.37434,562.87921 164.13231,562.96722 163.9375,563.125 C 163.53921,562.9446 163.13999,562.74998 162.71875,562.75 C 162.05306,562.75002 161.38242,562.97309 160.8125,563.34375 C 160.42323,563.59694 160.20872,564.04559 159.9375,564.4375 C 159.79668,564.18724 159.67851,563.92454 159.46875,563.71875 C 158.77811,563.0412 157.81392,562.74997 156.8125,562.75 C 155.94441,562.75001 155.14529,563.06114 154.4375,563.53125 L 154.71875,562.15625 C 154.78495,561.8275 154.70066,561.48637 154.48896,561.22628 C 154.27726,560.9662 153.96035,560.81441 153.625,560.8125 L 152.15625,560.8125 C 152.11462,560.81018 152.07288,560.81018 152.03125,560.8125 z M 204.34375,560.8125 C 203.85774,560.87097 203.46571,561.23772 203.375,561.71875 L 203.09375,563 C 202.93904,562.92011 202.76786,562.87731 202.59375,562.875 L 201.21875,562.875 C 200.96809,562.87921 200.72606,562.96722 200.53125,563.125 C 200.14845,562.94982 199.76268,562.74998 199.34375,562.75 C 198.67806,562.75002 198.00742,562.97308 197.4375,563.34375 C 197.06014,563.58919 196.81662,564.04095 196.53125,564.4375 C 196.37307,564.08712 196.34867,563.67843 196.0625,563.4375 C 195.40589,562.88475 194.61352,562.74998 193.78125,562.75 C 193.03172,562.75001 192.34715,562.934 191.75,563.28125 C 191.6405,563.14714 191.50146,563.04018 191.34375,562.96875 L 191.46875,562.375 C 191.56693,561.94006 191.39832,561.48826 191.03919,561.22399 C 190.68006,560.95972 190.19854,560.93313 189.8125,561.15625 L 188.125,562.15625 C 187.85604,562.31194 187.66367,562.57219 187.59375,562.875 L 187.59375,562.90625 C 187.14102,562.98487 186.78196,563.33155 186.6875,563.78125 L 186.46875,564.875 C 186.39002,565.30957 186.5735,565.7499 186.9375,566 L 186.71875,567 C 186.7186,567.01042 186.7186,567.02083 186.71875,567.03125 C 186.58812,567.65618 186.49997,567.96316 186.5,568.40625 C 186.5,568.99037 186.73477,569.65693 187.25,570.09375 C 187.85299,570.605 188.48886,570.65626 189.125,570.65625 C 189.42265,570.65625 189.74188,570.63386 190.09375,570.5625 C 190.39115,570.50002 190.6505,570.31961 190.8125,570.0625 C 191.25979,570.36831 191.74503,570.65626 192.28125,570.65625 C 192.66987,570.65625 193.06233,570.55534 193.4375,570.40625 C 193.6016,570.491 193.78408,570.53393 193.96875,570.53125 L 195.40625,570.53125 C 195.40674,570.53353 195.43701,570.52897 195.4375,570.53125 C 195.57468,571.16794 195.83094,571.792 196.375,572.15625 C 197.04353,572.60386 197.84334,572.75001 198.75,572.75 C 199.16921,572.75 199.5492,572.68778 199.875,572.625 C 200.2106,572.5603 200.56933,572.48904 200.96875,572.25 C 201.3295,572.03413 201.61823,571.73097 201.8125,571.46875 C 202.03725,571.16534 202.20616,570.8414 202.34375,570.4375 C 202.34633,570.42993 202.3412,570.41387 202.34375,570.40625 C 202.50785,570.491 202.69033,570.53393 202.875,570.53125 L 204.34375,570.53125 C 204.60905,570.52543 204.8637,570.42578 205.0625,570.25 C 205.26939,570.43281 205.53642,570.53295 205.8125,570.53125 L 207.25,570.53125 C 207.5153,570.52543 207.76995,570.42578 207.96875,570.25 C 208.17564,570.43281 208.44267,570.53295 208.71875,570.53125 L 210.1875,570.53125 C 210.60538,570.53496 210.99072,570.30617 211.1875,569.9375 C 211.38428,570.30617 211.76962,570.53496 212.1875,570.53125 L 213.65625,570.53125 C 214.18995,570.52768 214.64729,570.14873 214.75,569.625 L 214.84375,569.125 C 214.95475,569.28754 215.01762,569.48483 215.15625,569.625 C 215.82741,570.30368 216.78917,570.65626 217.75,570.65625 C 218.4377,570.65625 219.15477,570.51184 219.78125,570.125 C 220.42421,569.72796 220.86923,569.1265 221.1875,568.46875 C 221.30127,568.25873 221.34506,568.01788 221.3125,567.78125 C 221.31265,567.77083 221.31265,567.76042 221.3125,567.75 C 221.38362,567.64506 221.43646,567.52884 221.46875,567.40625 C 221.56427,567.00977 221.59374,566.62698 221.59375,566.21875 C 221.59374,565.27525 221.32376,564.3542 220.6875,563.6875 C 220.07719,563.04802 219.1832,562.74997 218.3125,562.75 C 217.0723,562.75001 215.92269,563.29834 215.15625,564.25 C 215.03434,563.98896 215.04568,563.66934 214.84375,563.46875 C 214.37214,563.00028 213.67808,562.74997 213.03125,562.75 C 212.6154,562.75001 212.19321,562.84894 211.78125,563 C 211.61715,562.91525 211.43467,562.87232 211.25,562.875 L 209.84375,562.875 C 209.82292,562.87442 209.80208,562.87442 209.78125,562.875 L 209.90625,562.15625 C 209.97245,561.8275 209.88816,561.48637 209.67646,561.22628 C 209.46476,560.9662 209.14785,560.81441 208.8125,560.8125 L 207.375,560.8125 C 207.1097,560.81832 206.85505,560.91797 206.65625,561.09375 C 206.44936,560.91094 206.18233,560.8108 205.90625,560.8125 L 204.46875,560.8125 C 204.42712,560.81018 204.38538,560.81018 204.34375,560.8125 L 204.34375,560.8125 z M 99.25,562.75 C 98.488042,562.75001 97.708514,562.9304 97.03125,563.34375 C 96.34179,563.76457 95.822757,564.40342 95.5,565.09375 C 95.193405,565.74953 95.031249,566.46485 95.03125,567.21875 C 95.031249,568.16837 95.333404,569.07274 95.96875,569.71875 C 96.600471,570.36109 97.518337,570.65626 98.40625,570.65625 C 99.183271,570.65625 99.986579,570.44987 100.65625,569.96875 C 100.98178,569.73485 101.13553,569.32463 101.375,569 C 101.66839,569.5117 102.10519,569.965 102.65625,570.25 C 103.2713,570.56813 103.9078,570.65626 104.53125,570.65625 C 105.47687,570.65625 106.33603,570.2848 107.0625,569.71875 C 107.19895,570.19411 107.63049,570.52412 108.125,570.53125 L 109.59375,570.53125 C 109.92076,570.52526 110.22889,570.3769 110.4375,570.125 C 110.65311,570.38527 110.97454,570.5345 111.3125,570.53125 L 112.78125,570.53125 C 113.11921,570.5345 113.44064,570.38527 113.65625,570.125 C 113.87186,570.38527 114.19329,570.5345 114.53125,570.53125 L 116,570.53125 C 116.01042,570.5314 116.02083,570.5314 116.03125,570.53125 L 115.875,571.28125 C 115.8088,571.61 115.89309,571.95113 116.10479,572.21122 C 116.31649,572.4713 116.6334,572.62309 116.96875,572.625 L 118.4375,572.625 C 118.9712,572.62143 119.42854,572.24248 119.53125,571.71875 L 119.8125,570.4375 C 120.09358,570.52156 120.36202,570.65625 120.65625,570.65625 C 121.6419,570.65625 122.62528,570.21176 123.3125,569.4375 C 123.32811,569.41984 123.32843,569.39288 123.34375,569.375 C 123.44219,569.53347 123.4323,569.74404 123.5625,569.875 C 124.04396,570.35927 124.74994,570.65627 125.4375,570.65625 C 125.83615,570.65625 126.24128,570.56307 126.625,570.40625 C 126.7891,570.491 126.97158,570.53393 127.15625,570.53125 L 128.5625,570.53125 C 128.7605,570.5297 128.95457,570.47579 129.125,570.375 C 129.29543,570.47579 129.4895,570.5297 129.6875,570.53125 L 131.15625,570.53125 C 131.57413,570.53496 131.95947,570.30617 132.15625,569.9375 C 132.35303,570.30617 132.73837,570.53496 133.15625,570.53125 L 134.625,570.53125 C 134.64583,570.53183 134.66667,570.53183 134.6875,570.53125 L 134.59375,571.34375 C 134.52558,571.89511 134.87108,572.41336 135.40625,572.5625 C 135.87387,572.69376 136.32589,572.75001 136.75,572.75 C 137.24278,572.75 137.68644,572.62694 138.0625,572.4375 C 138.44718,572.24369 138.76409,571.9505 139,571.65625 C 139.23117,571.36789 139.45617,571.02599 139.75,570.5 L 143.09375,564.5625 C 143.29606,564.21551 143.29751,563.78685 143.09753,563.43851 C 142.89756,563.09017 142.52666,562.87526 142.125,562.875 L 140.59375,562.875 C 140.17587,562.87129 139.79053,563.10008 139.59375,563.46875 L 139.15625,564.28125 L 139.09375,563.84375 C 139.01644,563.28348 138.53429,562.8683 137.96875,562.875 L 136.5,562.875 C 136.13451,562.8841 135.79635,563.07066 135.59375,563.375 C 135.11545,563.01045 134.55956,562.74997 134,562.75 C 133.58415,562.75001 133.16196,562.84893 132.75,563 C 132.5859,562.91525 132.40342,562.87232 132.21875,562.875 L 130.8125,562.875 C 130.2788,562.87857 129.82146,563.25752 129.71875,563.78125 L 129.625,564.25 C 129.47299,563.97281 129.45413,563.63567 129.21875,563.4375 C 128.58856,562.90699 127.80102,562.74998 126.96875,562.75 C 126.14879,562.75001 125.37111,562.90704 124.71875,563.34375 C 124.3793,563.571 124.23035,563.9777 124,564.3125 C 123.89542,564.11822 123.83526,563.88616 123.6875,563.71875 C 123.14117,563.09977 122.3035,562.74997 121.46875,562.75 C 121.09757,562.75001 120.71982,562.84804 120.375,562.96875 C 120.23694,562.90845 120.08815,562.87657 119.9375,562.875 L 118.53125,562.875 C 117.99755,562.87857 117.54021,563.25752 117.4375,563.78125 L 117.4375,563.84375 C 117.34811,563.71015 117.36114,563.51271 117.25,563.40625 C 116.77514,562.95147 116.09543,562.74997 115.46875,562.75 C 114.89795,562.75002 114.33376,562.89939 113.84375,563.15625 C 113.81334,563.1722 113.78053,563.20202 113.75,563.21875 C 113.27691,562.88076 112.71972,562.74997 112.1875,562.75 C 111.81658,562.75001 111.47129,562.87147 111.125,563 C 110.97029,562.92011 110.79911,562.87731 110.625,562.875 L 109.25,562.875 C 108.7163,562.87857 108.25896,563.25752 108.15625,563.78125 L 108.0625,564.25 C 107.94523,564.07838 107.86747,563.86465 107.71875,563.71875 C 107.0281,563.0412 106.06391,562.74997 105.0625,562.75 C 103.91492,562.75001 102.80946,563.14851 102.03125,563.96875 C 101.96337,564.0403 101.93663,564.14278 101.875,564.21875 C 101.72944,564.00277 101.72396,563.69987 101.53125,563.53125 C 100.91589,562.99283 100.08451,562.74997 99.25,562.75 z M 105.03125,566.09375 C 105.03145,566.10446 105.03125,566.05401 105.03125,566.125 C 105.03125,566.63564 104.93027,566.95341 104.71875,567.21875 C 104.65392,567.3006 104.64957,567.28455 104.59375,567.28125 C 104.58749,567.28455 104.59375,567.31012 104.59375,567.15625 C 104.59375,566.96581 104.62807,566.74824 104.71875,566.5 C 104.81279,566.24257 104.89699,566.1324 104.90625,566.125 C 104.93972,566.09827 104.97283,566.09547 105.03125,566.09375 z M 156.78125,566.09375 C 156.78209,566.09755 156.78125,566.06992 156.78125,566.125 C 156.78125,566.60212 156.66733,566.93043 156.4375,567.21875 C 156.33321,567.35041 156.42313,567.28125 156.3125,567.28125 C 156.30624,567.28454 156.3125,567.3101 156.3125,567.15625 C 156.3125,566.96584 156.34681,566.74827 156.4375,566.5 C 156.51255,566.29456 156.61064,566.16142 156.65625,566.125 C 156.68972,566.09827 156.72283,566.09547 156.78125,566.09375 z M 120.78125,566.25 C 120.7713,566.43947 120.74917,566.68224 120.65625,566.9375 C 120.61211,567.05876 120.59877,567.03352 120.5625,567.09375 C 120.5625,566.96363 120.58554,566.75026 120.6875,566.4375 C 120.72696,566.31646 120.74712,566.30816 120.78125,566.25 z M 99,566.3125 C 99.01925,566.34478 99.04011,566.37607 99.0625,566.40625 C 99.019575,566.42447 98.977828,566.44534 98.9375,566.46875 C 98.966438,566.39918 98.974505,566.35142 99,566.3125 z M 199.46875,566.375 C 199.45398,566.52217 199.43877,566.66518 199.375,566.84375 C 199.35073,566.91171 199.33971,566.92023 199.3125,566.96875 C 199.3223,566.84565 199.31646,566.71052 199.375,566.53125 C 199.40619,566.43693 199.43492,566.44342 199.46875,566.375 z M 162.8125,566.4375 C 162.79476,566.56628 162.8048,566.69028 162.75,566.84375 C 162.73033,566.89882 162.70951,566.89521 162.6875,566.9375 C 162.70343,566.84036 162.71235,566.74222 162.78125,566.53125 C 162.80112,566.47116 162.79273,566.48648 162.8125,566.4375 z M 136.0625,567.90625 L 136.3125,569.1875 C 136.2883,569.2223 136.26245,569.29906 136.25,569.3125 C 136.22358,569.30971 136.18161,569.31982 136.15625,569.3125 C 136.04563,569.27385 135.92964,569.25276 135.8125,569.25 L 136.0625,567.90625 z" />
    <text
       xml:space="preserve"
       style="font-size:10.45566368px;font-style:italic;font-variant:normal;font-weight:bold;font-stretch:normal;text-align:start;line-height:125%;writing-mode:lr-tb;text-anchor:start;opacity:1;fill:#ffffff;fill-opacity:1;stroke:none;stroke-width:1px;stroke-linecap:butt;stroke-linejoin:miter;stroke-opacity:1;font-family:Arial;-inkscape-font-specification:Arial Bold Italic"
       x="95.534798"
       y="569.41699"
       id="text2417"
       sodipodi:linespacing="125%"><tspan
         sodipodi:role="line"
         id="tspan2419"
         x="95.534798"
         y="569.41699">slogan / tagline</tspan></text>
  </g>
</svg>
